<svg xmlns="http://www.w3.org/2000/svg" xmlns:xlink="http://www.w3.org/1999/xlink" viewBox="0 0 65.845 65.845" fill="#fff" fill-rule="evenodd" stroke="#000" stroke-linecap="round" stroke-linejoin="round"><use xlink:href="#A" x=".922" y=".922"/><symbol id="A" overflow="visible"><g stroke="none" fill-rule="nonzero"><path d="M0 32A31.93 31.93 0 0 1 32 0a31.93 31.93 0 0 1 32 32 31.93 31.93 0 0 1-32 32A31.93 31.93 0 0 1 0 32z" fill="#e95420"/><path d="M31.849 30.172c0-1.098.884-1.981 1.981-1.981s1.981.884 1.981 1.981-.884 1.981-1.981 1.981-1.981-.884-1.981-1.981zm3.809-3.658h-3.656V11.887a6.41 6.41 0 0 1 6.401-6.401 6.41 6.41 0 0 1 6.401 6.401v3.658h-3.658v-3.656a2.73 2.73 0 0 0-2.743-2.743 2.75 2.75 0 0 0-2.743 2.743v14.628zm11.885 6.401a6.41 6.41 0 0 1-6.401-6.401v-9.142H44.8v9.142a2.75 2.75 0 0 0 2.743 2.743 2.75 2.75 0 0 0 2.743-2.743v-9.142h3.658v9.142c.006 1.698-.669 3.328-1.874 4.525-1.197 1.204-2.827 1.879-4.525 1.874zm-33.98 19.198c0-1.097.884-1.981 1.981-1.981s1.981.884 1.981 1.981-.884 1.981-1.981 1.981-1.981-.884-1.981-1.981zm3.808-3.656h-3.658V28.344a6.41 6.41 0 0 1 6.401-6.401 6.41 6.41 0 0 1 6.401 6.401v3.658h-3.658v-3.658c.002-.728-.286-1.427-.802-1.94a2.73 2.73 0 0 0-1.939-.802 2.75 2.75 0 0 0-2.743 2.743v20.113zm11.888.915a6.41 6.41 0 0 1-6.401-6.401v-9.144h3.658v9.144a2.75 2.75 0 0 0 2.743 2.743 2.75 2.75 0 0 0 2.743-2.743v-9.144h3.658v9.144a6.35 6.35 0 0 1-1.874 4.525c-1.197 1.204-2.827 1.879-4.525 1.874z"/></g></symbol></svg>